<svg id="Capa_1" data-name="Capa 1" xmlns="http://www.w3.org/2000/svg" viewBox="0 0 510.23 509.02"><defs><style>.cls-1{fill:#2b2354;}</style></defs><path class="cls-1" d="M255.12,482.69c-125.82,0-228.18-102.36-228.18-228.18S129.3,26.33,255.12,26.33,483.3,128.69,483.3,254.51,380.94,482.69,255.12,482.69Zm0-431.81c-112.28,0-203.63,91.35-203.63,203.63s91.35,203.62,203.63,203.62,203.62-91.34,203.62-203.62S367.4,50.88,255.12,50.88Z"/><path class="cls-1" d="M384.12,271.88v85.2a3.81,3.81,0,0,1-3.81,3.81h-44a3.81,3.81,0,0,1-3.81-3.81V277.85c0-20.86-7.45-35.1-26.14-35.1-14.25,0-22.73,9.59-26.47,18.87-1.36,3.32-1.71,7.93-1.71,12.58v82.88a3.81,3.81,0,0,1-3.81,3.81h-44a3.8,3.8,0,0,1-3.81-3.81c.1-21.1.54-123.48.09-147.55a3.79,3.79,0,0,1,3.81-3.85h43.89a3.81,3.81,0,0,1,3.81,3.81v18.18c-.11.18-.25.34-.34.51h.34v-.51c6.86-10.55,19.09-25.64,46.51-25.64,34,0,59.41,22.19,59.41,69.85Zm-233.85,89h44a3.81,3.81,0,0,0,3.81-3.81V209.49a3.81,3.81,0,0,0-3.81-3.81h-44a3.81,3.81,0,0,0-3.81,3.81V357.08A3.81,3.81,0,0,0,150.27,360.89Z"/><circle class="cls-1" cx="170.71" cy="158.31" r="27.62"/></svg>