<svg id="Capa_1" data-name="Capa 1" xmlns="http://www.w3.org/2000/svg" viewBox="0 0 510.23 509.02"><defs><style>.cls-1{fill:#2b2354;}</style></defs><path class="cls-1" d="M255.12,481.58C129.91,481.58,28,379.72,28,254.51S129.91,27.43,255.12,27.43,482.19,129.3,482.19,254.51,380.32,481.58,255.12,481.58Zm0-432.57C141.8,49,49.61,141.19,49.61,254.51S141.8,460,255.12,460s205.5-92.19,205.5-205.5S368.43,49,255.12,49Zm76.56,113.37a16.8,16.8,0,1,0,16.81,16.8A16.8,16.8,0,0,0,331.68,162.38ZM257,183.93a70.58,70.58,0,1,0,70.58,70.58A70.66,70.66,0,0,0,257,183.93Zm0,115.79a45.21,45.21,0,1,1,45.21-45.21A45.26,45.26,0,0,1,257,299.72ZM399.4,195.85a86.09,86.09,0,0,0-86.09-86.09H199.68a86.09,86.09,0,0,0-86.09,86.09V309.48a86.09,86.09,0,0,0,86.09,86.09H313.31a86.09,86.09,0,0,0,86.09-86.09Zm-27,113.63a59.13,59.13,0,0,1-59.13,59.13H199.68a59.13,59.13,0,0,1-59.13-59.13V195.85a59.13,59.13,0,0,1,59.13-59.13H313.31a59.13,59.13,0,0,1,59.13,59.13Z"/></svg>