<svg id="Capa_1" data-name="Capa 1" xmlns="http://www.w3.org/2000/svg" viewBox="0 0 510.23 509.02"><defs><style>.cls-1,.cls-2{fill:#2b2354;}.cls-2{fill-rule:evenodd;}</style></defs><path class="cls-1" d="M255.12,483.07c-126,0-228.57-102.53-228.57-228.56S129.09,25.94,255.12,25.94,483.68,128.48,483.68,254.51,381.15,483.07,255.12,483.07Zm0-432.57c-112.5,0-204,91.52-204,204s91.51,204,204,204,204-91.52,204-204S367.61,50.5,255.12,50.5Z"/><path class="cls-2" d="M219.27,255.59V388.06a3.46,3.46,0,0,0,3.45,3.45h49.2a3.46,3.46,0,0,0,3.45-3.45V253.43H311a3.44,3.44,0,0,0,3.44-3.16l3.43-40.56a3.46,3.46,0,0,0-3.44-3.75H275.37V177.18A12.21,12.21,0,0,1,287.58,165h27.49a3.45,3.45,0,0,0,3.45-3.45V121a3.45,3.45,0,0,0-3.45-3.45H268.62a49.35,49.35,0,0,0-49.35,49.35V206H194.68a3.45,3.45,0,0,0-3.45,3.45V250a3.45,3.45,0,0,0,3.45,3.45h24.59Z"/></svg>