<svg id="Capa_1" data-name="Capa 1" xmlns="http://www.w3.org/2000/svg" viewBox="0 0 510.23 509.02"><defs><style>.cls-1{fill:#2b2354;}</style></defs><path class="cls-1" d="M267,482.69c-125.82,0-228.18-102.36-228.18-228.18S141.2,26.33,267,26.33,495.19,128.69,495.19,254.51,392.83,482.69,267,482.69Zm0-431.81c-112.28,0-203.63,91.35-203.63,203.63S154.74,458.13,267,458.13s203.62-91.34,203.62-203.62S379.3,50.88,267,50.88Z"/><path class="cls-1" d="M271.24,137.82a90,90,0,0,0-89.93,89.94c0,35.44,14.84,71.28,42.9,103.66,21,24.19,41.74,37.89,42.62,38.46a8.08,8.08,0,0,0,8.82,0c.87-.57,21.65-14.27,42.61-38.46,28.07-32.38,42.91-68.22,42.91-103.66a90,90,0,0,0-89.93-89.94Zm0,215.41c-16.54-12.33-73.81-59.75-73.81-125.47a73.81,73.81,0,0,1,147.62,0c0,65.72-57.27,113.14-73.81,125.47Zm0,0"/><path class="cls-1" d="M271.24,192.05a35.7,35.7,0,1,0,35.69,35.69,35.73,35.73,0,0,0-35.69-35.69Zm0,55.26a19.57,19.57,0,1,1,19.57-19.57,19.59,19.59,0,0,1-19.57,19.57Zm0,0"/></svg>