<svg id="Capa_1" data-name="Capa 1" xmlns="http://www.w3.org/2000/svg" viewBox="0 0 510.23 509.02"><defs><style>.cls-1{fill:#2b2354;}</style></defs><path class="cls-1" d="M255.12,482.69c-125.82,0-228.18-102.36-228.18-228.18S129.3,26.33,255.12,26.33,483.3,128.69,483.3,254.51,380.94,482.69,255.12,482.69Zm0-431.81c-112.28,0-203.63,91.35-203.63,203.63s91.35,203.62,203.63,203.62,203.62-91.34,203.62-203.62S367.4,50.88,255.12,50.88Z"/><path class="cls-1" d="M371.43,194.92c0-.12-.09-.23-.12-.35s-.1-.29-.16-.44-.11-.28-.16-.43-.11-.29-.17-.43l-.18-.41c-.06-.15-.12-.29-.19-.43s-.13-.27-.19-.4l-.21-.42c-.06-.13-.13-.26-.2-.39l-.23-.41-.22-.38-.23-.4-.24-.37c-.08-.13-.16-.26-.25-.39l-.25-.35c-.08-.13-.17-.26-.26-.38l-.26-.34c-.09-.13-.19-.25-.28-.37l-.27-.33-.3-.36-.28-.32c-.1-.11-.2-.23-.31-.34l-.29-.31-.32-.33-.31-.29-.33-.33-.32-.27c-.11-.11-.23-.21-.35-.31l-.32-.27-.36-.29-.33-.25-.38-.29-.34-.24-.38-.26-.36-.23-.39-.25-.36-.21-.4-.24-.37-.2-.41-.22-.39-.18-.41-.21-.4-.17c-.14-.06-.27-.13-.42-.18l-.4-.17-.43-.16-.42-.15-.42-.15-.43-.13-.43-.13-.44-.12-.43-.11-.46-.1c-.14,0-.28-.07-.43-.09l-.48-.09-.41-.08-.51-.07-.4-.05-.54-.06-.37,0-.61,0-.32,0-.93,0H160.57l-.94,0-.31,0-.61,0-.37,0c-.18,0-.37,0-.55.06l-.4.05-.5.07-.42.08-.48.09-.43.09-.45.1-.44.11-.44.12-.43.13-.42.13-.43.15-.42.15-.42.16-.41.16-.42.19-.39.17-.42.2-.39.19-.4.22-.37.2-.4.24-.37.21-.39.25-.36.23-.38.26-.34.24-.37.28-.34.26-.36.29-.32.27-.35.31-.31.27-.34.33-.3.29-.33.33-.29.31c-.1.11-.2.23-.31.34l-.28.32-.3.36-.27.33-.28.37-.26.34-.26.38c-.08.12-.17.23-.25.36l-.25.38-.24.37-.23.4-.22.38-.22.41-.21.39c-.07.14-.14.28-.2.42l-.2.4-.18.43a3,3,0,0,0-.18.41l-.18.43c-.05.15-.11.29-.16.43l-.15.44-.12.35a21,21,0,0,0-1.24,7.26V324.84a23,23,0,0,0,22.14,23H349.79a22.79,22.79,0,0,0,21.83-15.93,8.15,8.15,0,0,0,.26-1.11,22.9,22.9,0,0,0,.78-6V202.18a21,21,0,0,0-1.23-7.26Zm-215.54,1.22.29-.22.22-.14.3-.2.24-.13.31-.16.25-.11.33-.14.25-.1.35-.11.25-.07.37-.09.25,0,.42-.06.21,0c.21,0,.42,0,.64,0h189.1c.21,0,.43,0,.64,0l.21,0,.42.06.24.05.37.08.26.07.34.11.26.1.33.14.24.11.31.16.24.13.3.2a1.64,1.64,0,0,1,.22.14l.3.22.15.13-94,94a7.67,7.67,0,0,1-10.83,0l-94-94a1.67,1.67,0,0,0,.16-.12Zm-3,19,48.46,48.45L152.9,312ZM349.67,332.5h-189a7.62,7.62,0,0,1-4.84-1.75l56.34-56.34,26.66,26.66a23,23,0,0,0,32.51,0l26.79-26.79,56.42,56.43a7.59,7.59,0,0,1-4.91,1.79Zm7.66-20.73L309,263.44l48.33-48.32Zm0,0"/></svg>