<svg id="Capa_1" data-name="Capa 1" xmlns="http://www.w3.org/2000/svg" viewBox="0 0 510.23 509.02"><defs><style>.cls-1{fill:#2b2354;}</style></defs><path class="cls-1" d="M255.69,482.69c-125.82,0-228.18-102.36-228.18-228.18S129.87,26.33,255.69,26.33,483.87,128.69,483.87,254.51,381.51,482.69,255.69,482.69Zm0-431.81c-112.28,0-203.63,91.35-203.63,203.63s91.35,203.62,203.63,203.62,203.62-91.34,203.62-203.62S368,50.88,255.69,50.88Z"/><path class="cls-1" d="M330.92,178.71a106.5,106.5,0,0,0-75.8-31.4h0a107.21,107.21,0,1,0,75.8,31.4Zm7,121.57H306.55a141.13,141.13,0,0,0,7.32-39.49h35.67a93.86,93.86,0,0,1-11.62,39.49Zm-82.8,47.93c-13.37-7.95-24.46-20.28-32.44-35.36h64.87c-8,15.08-19.06,27.41-32.43,35.36ZM217,300.28a128,128,0,0,1-8.06-39.49H301.3a127.75,127.75,0,0,1-8.07,39.49Zm-56.3-39.49h35.66a140.78,140.78,0,0,0,7.33,39.49H172.31a93.85,93.85,0,0,1-11.61-39.49Zm11.61-52.06h31.38a140.91,140.91,0,0,0-7.33,39.5H160.7a93.94,93.94,0,0,1,11.61-39.5Zm82.81-47.93c13.37,8,24.46,20.29,32.43,35.37H222.68c8-15.08,19.07-27.41,32.44-35.37Zm38.11,47.93a127.76,127.76,0,0,1,8.07,39.5H208.94a127.76,127.76,0,0,1,8.07-39.5Zm56.31,39.5H313.87a141.27,141.27,0,0,0-7.32-39.5h31.37a94,94,0,0,1,11.62,39.5Zm-48-52.06a111.32,111.32,0,0,0-23.45-33.48,94.86,94.86,0,0,1,51.51,33.48Zm-69.35-33.48a111.14,111.14,0,0,0-23.45,33.48H180.65a94.89,94.89,0,0,1,51.52-33.48ZM208.72,312.85a111.09,111.09,0,0,0,23.45,33.47,94.87,94.87,0,0,1-51.52-33.47Zm69.35,33.47a111.27,111.27,0,0,0,23.45-33.47h28.06a94.84,94.84,0,0,1-51.51,33.47Zm0,0"/></svg>