<svg id="Capa_1" data-name="Capa 1" xmlns="http://www.w3.org/2000/svg" viewBox="0 0 510.23 509.02"><defs><style>.cls-1{fill:#2b2354;}</style></defs><path class="cls-1" d="M255.12,482.69c-125.82,0-228.18-102.36-228.18-228.18S129.3,26.33,255.12,26.33,483.29,128.69,483.29,254.51,380.93,482.69,255.12,482.69Zm0-431.81c-112.28,0-203.63,91.35-203.63,203.63s91.35,203.62,203.63,203.62,203.62-91.34,203.62-203.62S367.4,50.88,255.12,50.88Z"/><path class="cls-1" d="M341.72,217c-62.35,0-62.44,62.12-62.44,62.44,0,0-4.27,62.2,62.44,62.2,0,0,50.22,2.86,55.24-36.69a5.86,5.86,0,0,0-5.78-6.6H373.72a5.74,5.74,0,0,0-5.53,4c-1.53,5.17-6.89,13.45-25.51,13.45,0,0-24.18,1.61-28.05-21.6a5.78,5.78,0,0,1,5.76-6.65h72.5A5.8,5.8,0,0,0,398.7,282C399.27,265.3,396.22,217,341.72,217Zm-23.59,48.82a3.39,3.39,0,0,1-3.24-4.43c2.32-7.18,9.11-20.57,27.47-20.57,18.92,0,23.39,14.14,24.45,21.15a3.38,3.38,0,0,1-3.37,3.85Zm-74.9-14.47a2.42,2.42,0,0,1-.42-4.45c7-3.53,15.16-11.25,15.16-28,0-29-20.26-43.29-46-43.29H131.66a4.27,4.27,0,0,0-4.27,4.27V333.93a4.27,4.27,0,0,0,4.27,4.27H212s51.68,1.58,51.68-48C263.67,290.16,265.4,258.63,243.23,251.31Zm-78.56-43.77a3.08,3.08,0,0,1,3.08-3.09H212s11.48,0,11.48,16.94-6.73,19.39-14.41,19.39H167.75a3.09,3.09,0,0,1-3.08-3.09Zm45,101.77H167.75a3.08,3.08,0,0,1-3.08-3.08V268.87a3.09,3.09,0,0,1,3.08-3.09H212s17.18-.15,17.09,22.4C229.08,307.18,216.35,309.16,209.62,309.31Zm97.12-127.25V196A3.06,3.06,0,0,0,309.8,199h61a3.06,3.06,0,0,0,3.06-3.06V182.06A3.05,3.05,0,0,0,370.8,179h-61A3.05,3.05,0,0,0,306.74,182.06Z"/></svg>