<svg id="Capa_1" data-name="Capa 1" xmlns="http://www.w3.org/2000/svg" viewBox="0 0 510.23 509.02"><defs><style>.cls-1,.cls-2{fill:#2b2354;}.cls-2{fill-rule:evenodd;}</style></defs><path class="cls-1" d="M255.12,483.07c-126,0-228.57-102.53-228.57-228.56S129.08,25.94,255.12,25.94,483.68,128.48,483.68,254.51,381.15,483.07,255.12,483.07Zm0-432.57c-112.5,0-204,91.52-204,204s91.51,204,204,204,204-91.52,204-204S367.61,50.5,255.12,50.5Z"/><path class="cls-1" d="M386.48,171.09a109.44,109.44,0,0,1-26.91,7.69c4.34-.73,10.73-8.58,13.28-11.75a49.35,49.35,0,0,0,9-16.32c.24-.47.41-1.05-.05-1.4a1.5,1.5,0,0,0-1.43.12,137.83,137.83,0,0,1-32,12.23,2.14,2.14,0,0,1-2.21-.59,25.18,25.18,0,0,0-2.79-2.85,56.54,56.54,0,0,0-15.49-9.49,53.87,53.87,0,0,0-23.75-3.83,56.81,56.81,0,0,0-22.53,6.37,58,58,0,0,0-18.17,14.85,55.69,55.69,0,0,0-10.86,21.74c-1.87,7.65-1.72,15.22-.57,22.95.17,1.28.06,1.46-1.11,1.28-43.9-6.53-80.3-22.24-109.84-55.91-1.28-1.46-2-1.46-3,.12-12.93,19.37-6.65,50.51,9.5,65.81,2.15,2,4.36,4.08,6.75,5.94-.87.18-11.62-1-21.2-5.94-1.28-.81-1.92-.35-2,1.11a33.18,33.18,0,0,0,.35,6.29c2.48,19.64,16.08,37.81,34.71,44.9a32.64,32.64,0,0,0,7,2.15c-4.25.93-8.62,1.6-20.79.65-1.52-.3-2.1.46-1.52,1.92,9.15,24.93,28.9,32.35,43.68,36.57,2,.35,4,.35,6,.81-.12.18-.24.18-.36.36-4.9,7.47-21.9,13-29.82,15.81A106.93,106.93,0,0,1,125,338.47c-2.43-.35-2.94-.33-3.61,0s-.08,1,.7,1.63c3.09,2,6.23,3.85,9.44,5.6a149.71,149.71,0,0,0,30.28,12.11c54.42,15,115.73,4,156.59-36.62,32.09-31.88,43.34-75.85,43.34-119.87,0-1.73,2-2.68,3.24-3.59,8.35-6.27,15-13.78,21.22-22.16a6.42,6.42,0,0,0,1.31-4.24v-.24C387.48,170.39,387.57,170.6,386.48,171.09Z"/><path class="cls-2" d="M200.19,363.28c-.35,0-4.4,0,0,0Z"/><path class="cls-2" d="M209.16,363.51c0-.44,4.72,0,0,0C209.16,363.28,209.74,363.51,209.16,363.51Z"/><path class="cls-2" d="M303.39,145.12a1,1,0,0,1-1.1,0Z"/></svg>