<svg id="Capa_1" data-name="Capa 1" xmlns="http://www.w3.org/2000/svg" viewBox="0 0 510.23 509.02"><defs><style>.cls-1,.cls-2{fill:#2b2354;}.cls-2{fill-rule:evenodd;}</style></defs><path class="cls-1" d="M255.12,483.07c-126,0-228.57-102.53-228.57-228.56S129.09,25.94,255.12,25.94,483.68,128.48,483.68,254.51,381.15,483.07,255.12,483.07Zm0-432.57c-112.5,0-204,91.52-204,204s91.51,204,204,204,204-91.52,204-204S367.61,50.5,255.12,50.5Z"/><path class="cls-2" d="M265.9,105.73c-76.09,0-138,61.9-138,138a136.93,136.93,0,0,0,22,74.79l-21,46.18a12.05,12.05,0,0,0,14.17,16.6l57.76-15.85a137.86,137.86,0,0,0,65,16.28c76.1,0,138-61.91,138-138S342,105.73,265.9,105.73Zm0,251.89a113.71,113.71,0,0,1-57.34-15.51,12.07,12.07,0,0,0-6.08-1.64,12.31,12.31,0,0,0-3.19.42l-37.74,10.36L174.7,322.3a12.08,12.08,0,0,0-1.2-12,113.87,113.87,0,1,1,92.4,47.36Z"/><path class="cls-2" d="M319,264.39c-5.78-3.46-13.3-7.32-20.11-4.53-5.22,2.13-8.56,10.31-11.94,14.49-1.74,2.14-3.81,2.47-6.48,1.4-19.6-7.81-34.63-20.9-45.45-38.93-1.83-2.81-1.5-5,.71-7.62,3.27-3.84,7.37-8.21,8.25-13.4s-1.54-11.25-3.69-15.87c-2.74-5.9-5.8-14.31-11.71-17.65-5.44-3.07-12.59-1.35-17.43,2.59-8.36,6.8-12.39,17.46-12.27,28a40.22,40.22,0,0,0,1.1,8.9c1.69,7,4.91,13.48,8.54,19.67A153.37,153.37,0,0,0,217.39,255,137.42,137.42,0,0,0,256,290.89a116.5,116.5,0,0,0,24.1,11.46c9.44,3.12,17.85,6.37,28.05,4.43,10.67-2,21.19-8.63,25.43-18.92a16.39,16.39,0,0,0,1.18-9.65C333.34,271.56,324.34,267.6,319,264.39Z"/></svg>