<svg id="Capa_1" data-name="Capa 1" xmlns="http://www.w3.org/2000/svg" viewBox="0 0 510.23 509.02"><defs><style>.cls-1{fill:#2b2354;}</style></defs><path class="cls-1" d="M251.15,476.84c-126,0-228.57-102.53-228.57-228.56S125.12,19.71,251.15,19.71,479.72,122.24,479.72,248.28,377.18,476.84,251.15,476.84Zm0-432.58c-112.49,0-204,91.52-204,204s91.52,204,204,204,204-91.52,204-204S363.64,44.26,251.15,44.26Z"/><path class="cls-1" d="M101.89,327.25v-4.69c1.92-2.23,4-4.12,7.07-4.74,24.61-4.87,41.07-20.56,53.48-41.16,10.44-17.31,8.77-21.27-10.47-28.08-1.1-.39-2.23-.71-3.32-1.15-4.15-1.71-8.26-3.54-11.7-6.52-8.61-7.49-3.52-18.27,6.64-20.72,7.42-1.79,13.89,3,21.1,3.89,4.81.6,6.74-1,6.14-6.16a246.57,246.57,0,0,1-.86-39.75c1.19-25.3,13.63-44.56,34.7-57,30.77-18.24,62.93-18.47,93.92-.29,19.34,11.35,31.83,28.53,34.54,51.56,1.76,15,1.06,30-.12,45-.52,6.52.81,7.71,7.26,6.21,8-1.88,14.7-6,23-2.35,4.44,2,8.32,6.16,8.2,11-.08,3.32-2,6.38-4.53,8.57-3.84,3.34-8.85,5.2-13.51,7.09-3.61,1.46-7.37,2.6-10.89,4.25-7.26,3.4-9.35,7.9-5.95,15.09,11.77,24.88,29.07,43.77,57,50.34a13.36,13.36,0,0,1,8.22,5v4.69c-2.65,5.45-7.39,8.46-12.78,10.5s-11,4.39-16.84,4.77c-8.11.51-12.38,4.05-13.62,12.5-1.17,8-3.59,9.17-11.78,8.51-1.94-.16-3.86-.52-5.78-.86-16-2.85-31.1-1.22-44.28,9.43a98.5,98.5,0,0,1-8.22,5.62c-22.47,14.57-45.48,16.24-68.95,2.56-6.39-3.73-12.46-8-18.67-12.09A41.17,41.17,0,0,0,184.13,362c-9.73-1.47-19,.71-28.51,1.76-4.87.53-9.57-.85-9.85-5.89-.66-12.12-8.09-15.09-18.29-16.21-4.75-.52-9.44-2.45-13.92-4.33C108.67,335.31,104.22,332.41,101.89,327.25Z"/></svg>