<svg id="Capa_1" data-name="Capa 1" xmlns="http://www.w3.org/2000/svg" viewBox="0 0 510.23 509.02"><defs><style>.cls-1{fill:#2b2354;}</style></defs><path class="cls-1" d="M255.12,483.07c-126,0-228.57-102.53-228.57-228.56S129.09,25.94,255.12,25.94,483.68,128.48,483.68,254.51,381.15,483.07,255.12,483.07Zm0-432.57c-112.5,0-204,91.52-204,204s91.51,204,204,204,204-91.52,204-204S367.61,50.5,255.12,50.5Z"/><path class="cls-1" d="M392,219.85a58.7,58.7,0,0,0-58.69-58.7H181a58.7,58.7,0,0,0-58.7,58.7V291.2A58.7,58.7,0,0,0,181,349.89H333.28A58.69,58.69,0,0,0,392,291.2Zm-96.05,39.27-60.71,33.3c-2.64,1.42-5-.49-5-3.49V220.58c0-3,2.45-5,5.09-3.44l61.13,35.05C299.11,253.73,298.66,257.64,295.92,259.12Z"/></svg>