<svg id="Capa_1" data-name="Capa 1" xmlns="http://www.w3.org/2000/svg" viewBox="0 0 510.23 509.02"><defs><style>.cls-1{fill:#2b2354;}.cls-2{fill:none;}</style></defs><path class="cls-1" d="M255.12,482.69c-125.82,0-228.18-102.36-228.18-228.18S129.3,26.33,255.12,26.33,483.3,128.69,483.3,254.51,380.94,482.69,255.12,482.69Zm0-431.81c-112.28,0-203.63,91.35-203.63,203.63s91.35,203.62,203.63,203.62,203.62-91.34,203.62-203.62S367.4,50.88,255.12,50.88Z"/><path class="cls-1" d="M145.75,170.9a25.71,25.71,0,0,1,25.69-25.76h34.5a25.63,25.63,0,0,1,25.53,22.72,123.79,123.79,0,0,0,4.66,22.51,25.68,25.68,0,0,1-6.34,25.73l-14,14a161.27,161.27,0,0,0,63.73,63.74l14-14a25.65,25.65,0,0,1,25.73-6.34,125.86,125.86,0,0,0,22.51,4.66,25.62,25.62,0,0,1,22.73,25.53v34.49a25.72,25.72,0,0,1-28.12,25.59,210.31,210.31,0,0,1-129.61-60.9,210.39,210.39,0,0,1-60.91-129.61c-.07-.79-.1-1.57-.1-2.36ZM220.18,198a9.07,9.07,0,0,0-.39-2.61,141.86,141.86,0,0,1-5.31-25.59,8.55,8.55,0,0,0-8.54-7.56h-34.5a8.64,8.64,0,0,0-8.57,9.47A193.66,193.66,0,0,0,337.93,346.75a8.59,8.59,0,0,0,6.67-2.23,8.48,8.48,0,0,0,2.8-6.34V303.69a8.56,8.56,0,0,0-7.55-8.55,142,142,0,0,1-25.6-5.3,8.61,8.61,0,0,0-8.64,2.08l-22.76,22.76-5.5-2.74a178.16,178.16,0,0,1-79.67-79.66L195,226.77,217.71,204a8.52,8.52,0,0,0,2.47-6Zm0,0"/><rect class="cls-2" x="166.9" y="154.93" width="219.3" height="219.27"/></svg>