<svg id="Capa_1" data-name="Capa 1" xmlns="http://www.w3.org/2000/svg" viewBox="0 0 510.23 509.02"><defs><style>.cls-1{fill:#2b2354;}</style></defs><path class="cls-1" d="M255.12,482.69c-125.82,0-228.18-102.36-228.18-228.18S129.3,26.33,255.12,26.33,483.3,128.69,483.3,254.51,380.94,482.69,255.12,482.69Zm0-431.81c-112.28,0-203.63,91.35-203.63,203.63s91.35,203.62,203.63,203.62,203.62-91.34,203.62-203.62S367.4,50.88,255.12,50.88Z"/><path class="cls-1" d="M253.59,250.08a58.26,58.26,0,0,0,58.26-58.26,58.26,58.26,0,0,0-58.26-58.25,58.26,58.26,0,0,0-58.26,58.25,58.26,58.26,0,0,0,58.26,58.26Zm-31.16-89.42a44,44,0,0,1,62.33,0,44,44,0,0,1,0,62.33,44,44,0,0,1-62.33,0,44,44,0,0,1,0-62.33Zm0,0"/><path class="cls-1" d="M355.53,319.56a145.52,145.52,0,0,0-2-15.28,120.87,120.87,0,0,0-3.76-15.37,75.63,75.63,0,0,0-6.32-14.33A53.75,53.75,0,0,0,334,262.17a42,42,0,0,0-13.68-8.6,47.31,47.31,0,0,0-17.47-3.16c-2.47,0-4.86,1-9.47,4-2.84,1.85-6.16,4-9.87,6.36a56.4,56.4,0,0,1-12.76,5.62,49.42,49.42,0,0,1-31.22,0,56.1,56.1,0,0,1-12.75-5.62c-3.68-2.34-7-4.48-9.88-6.36-4.6-3-7-4-9.46-4a47.24,47.24,0,0,0-17.47,3.16,42,42,0,0,0-13.68,8.6,54.21,54.21,0,0,0-9.53,12.41,75.94,75.94,0,0,0-6.31,14.33,120.87,120.87,0,0,0-3.76,15.37,144.69,144.69,0,0,0-2,15.29c-.32,4.62-.48,9.42-.48,14.28,0,12.63,4,22.85,11.93,30.39s18.15,11.21,30.74,11.21H313.35c12.58,0,22.92-3.77,30.74-11.21S356,346.48,356,333.85c0-4.87-.17-9.68-.49-14.29ZM334.32,354c-5.17,4.91-12,7.3-21,7.3H196.89c-8.95,0-15.81-2.39-21-7.3s-7.53-11.4-7.53-20.12c0-4.53.15-9,.45-13.3a129.42,129.42,0,0,1,1.77-13.77,108.4,108.4,0,0,1,3.31-13.55,61.37,61.37,0,0,1,5.14-11.65,39.82,39.82,0,0,1,7-9.17,27.81,27.81,0,0,1,9.1-5.66,32.68,32.68,0,0,1,11.16-2.16c.5.27,1.38.77,2.82,1.71,2.91,1.9,6.27,4.06,10,6.43a70.31,70.31,0,0,0,16,7.16,63.72,63.72,0,0,0,39.94,0,70.2,70.2,0,0,0,16-7.16c3.8-2.43,7.07-4.53,10-6.43,1.43-.94,2.31-1.44,2.81-1.71a32.69,32.69,0,0,1,11.17,2.16,27.81,27.81,0,0,1,9.1,5.66,39.88,39.88,0,0,1,7,9.17,62,62,0,0,1,5.14,11.65,107.09,107.09,0,0,1,3.31,13.55,130.07,130.07,0,0,1,1.77,13.77h0c.3,4.28.45,8.76.45,13.3,0,8.72-2.46,15.3-7.52,20.12Zm0,0"/></svg>