<svg id="Capa_1" data-name="Capa 1" xmlns="http://www.w3.org/2000/svg" viewBox="0 0 510.23 509.02"><defs><style>.cls-1{fill:#2b2354;}</style></defs><path class="cls-1" d="M255.12,482.69c-125.82,0-228.18-102.36-228.18-228.18S129.3,26.33,255.12,26.33,483.3,128.69,483.3,254.51,380.94,482.69,255.12,482.69Zm0-431.81c-112.28,0-203.63,91.35-203.63,203.63s91.35,203.62,203.63,203.62,203.62-91.34,203.62-203.62S367.4,50.88,255.12,50.88Z"/><path class="cls-1" d="M272.54,327.72c-16.32-1.27-23.18-9.36-36-17.13-5.7,29.93-12.43,58.85-28.34,78.57-4.63,5.74-14,2.85-14.36-4.51C191.46,337,207.93,299.12,216,259.2c-15.37-25.86,1.84-77.92,34.25-65.09,39.88,15.77-34.53,96.16,15.42,106.21,52.16,10.48,73.45-90.5,41.1-123.34-46.73-47.42-136-1.08-125,66.8,2.08,12.9,12.91,18.82,11.53,31.57A11.35,11.35,0,0,1,177,284.46c-20.69-9.67-27.1-30.85-26.12-57.8,1.85-51.48,46.25-87.52,90.79-92.51,56.32-6.3,109.19,20.68,116.49,73.66,8.21,59.8-25.43,124.56-85.66,119.91Z"/></svg>